<?xml version="1.0" standalone="no"?>
<!DOCTYPE svg PUBLIC "-//W3C//DTD SVG 20010904//EN"
 "http://www.w3.org/TR/2001/REC-SVG-20010904/DTD/svg10.dtd">
<svg version="1.0" xmlns="http://www.w3.org/2000/svg"
 width="512.000000pt" height="512.000000pt" viewBox="0 0 512.000000 512.000000"
 preserveAspectRatio="xMidYMid meet">
<metadata>
Created by potrace 1.16, written by Peter Selinger 2001-2019
</metadata>
<g transform="translate(0.000000,512.000000) scale(0.100000,-0.100000)"
fill="#000000" stroke="none">
<path d="M2322 2670 c-12 -74 -67 -409 -123 -745 -66 -399 -99 -626 -96 -657
18 -199 254 -296 402 -166 85 75 61 -35 275 1273 32 198 60 374 62 390 l3 30
-251 5 -251 5 -21 -135z"/>
<path d="M677 2724 c-43 -42 -85 -91 -95 -108 -23 -43 -23 -160 1 -206 9 -20
266 -284 570 -587 611 -610 574 -580 698 -571 111 8 190 90 197 205 8 115 19
102 -478 598 -247 247 -450 453 -450 457 0 4 40 47 88 95 48 48 110 112 136
141 l49 52 -319 0 -319 0 -78 -76z"/>
<path d="M3780 2795 c0 -3 52 -58 116 -121 l117 -115 -451 -452 c-247 -249
-457 -467 -466 -484 -55 -110 -9 -251 100 -304 64 -30 153 -31 209 -1 24 12
259 240 577 559 569 570 577 579 578 672 0 78 -20 121 -87 189 l-63 62 -315 0
c-173 0 -315 -2 -315 -5z"/>
</g>
</svg>
