<?xml version="1.0" standalone="no"?>
<!DOCTYPE svg PUBLIC "-//W3C//DTD SVG 20010904//EN"
 "http://www.w3.org/TR/2001/REC-SVG-20010904/DTD/svg10.dtd">
<svg version="1.0" xmlns="http://www.w3.org/2000/svg"
 width="512.000000pt" height="512.000000pt" viewBox="0 0 512.000000 512.000000"
 preserveAspectRatio="xMidYMid meet">
<metadata>
Created by potrace 1.16, written by Peter Selinger 2001-2019
</metadata>
<g transform="translate(0.000000,512.000000) scale(0.100000,-0.100000)"
fill="#000000" stroke="none">
<path d="M1669 5097 c-69 -46 -88 -137 -45 -212 l25 -42 -57 -23 c-168 -67
-438 -227 -592 -350 -116 -92 -241 -212 -330 -315 -323 -376 -517 -797 -592
-1280 -17 -112 -21 -185 -22 -365 0 -299 26 -480 108 -751 173 -570 573 -1083
1091 -1399 137 -84 452 -230 495 -230 7 0 10 60 8 188 l-3 187 -72 5 c-92 6
-118 28 -118 96 0 38 5 50 28 70 27 23 35 24 166 24 134 0 139 -1 163 -25 14
-14 28 -39 32 -56 3 -18 6 -145 6 -284 0 -194 -3 -254 -12 -258 -25 -8 218
-55 370 -71 l52 -5 0 192 c0 224 11 283 68 367 72 105 181 163 308 162 155 -1
293 -99 344 -245 17 -48 20 -83 20 -237 0 -143 3 -180 13 -180 8 0 60 13 118
29 580 163 1075 524 1411 1030 152 230 263 477 333 744 227 863 -19 1781 -645
2407 -69 69 -144 140 -167 159 l-43 33 0 -256 c0 -234 -2 -260 -21 -311 -94
-251 -413 -323 -599 -136 -66 67 -97 127 -110 218 -13 91 -13 441 1 523 18
112 75 201 166 260 l43 27 -103 41 c-189 75 -374 126 -572 157 -138 22 -472
31 -621 16 -102 -11 -307 -46 -383 -67 -20 -6 -22 -4 -17 14 12 38 -12 98 -54
136 -36 33 -45 36 -99 36 -44 0 -66 -6 -92 -23z m1203 -304 c72 -28 134 -77
173 -136 61 -92 65 -118 65 -422 0 -303 -4 -330 -64 -421 -94 -140 -280 -197
-441 -134 -82 32 -173 122 -206 205 -23 59 -24 67 -24 350 0 280 1 292 23 347
27 66 96 148 156 183 95 56 220 67 318 28z m-1889 -1388 c68 -34 149 -116 180
-182 21 -46 22 -60 22 -363 l0 -315 -28 -57 c-36 -74 -101 -139 -175 -175 -51
-25 -68 -28 -157 -28 -87 0 -107 3 -157 27 -72 34 -143 104 -175 174 -37 81
-45 173 -41 429 4 203 7 236 26 283 40 103 123 185 223 223 81 29 204 23 282
-16z m1909 3 c79 -36 142 -98 181 -177 l32 -66 0 -305 0 -305 -29 -62 c-34
-73 -113 -153 -183 -186 -39 -18 -66 -22 -148 -22 -93 0 -105 2 -167 33 -108
53 -176 145 -199 267 -6 36 -9 158 -7 314 3 255 3 256 30 314 51 108 128 180
231 213 67 22 190 13 259 -18z m-972 -16 c19 -19 30 -44 35 -73 3 -24 5 -250
3 -502 l-3 -459 -33 -29 c-44 -40 -93 -40 -133 0 l-29 29 0 430 0 430 -71 4
c-65 3 -74 6 -100 36 -32 35 -37 72 -15 111 24 43 52 50 189 51 128 0 129 0
157 -28z m1936 -5 l24 -28 0 -500 0 -501 -29 -29 c-32 -31 -71 -38 -114 -18
-52 24 -52 22 -55 482 l-3 427 -55 0 c-60 0 -107 19 -124 49 -25 49 -3 122 44
141 11 5 81 8 154 7 133 -2 134 -2 158 -30z m840 0 l24 -28 0 -500 0 -501 -29
-29 c-39 -38 -87 -39 -130 -3 l-31 26 0 434 0 434 -54 0 c-67 0 -110 15 -130
45 -32 49 -12 124 38 145 11 5 81 8 154 7 133 -2 134 -2 158 -30z m-2797
-1319 c78 -29 169 -121 202 -203 22 -57 24 -75 27 -315 4 -275 -3 -341 -43
-420 -34 -66 -101 -128 -175 -164 -58 -28 -74 -31 -155 -31 -78 1 -98 5 -150
30 -76 36 -149 109 -183 183 l-27 57 0 310 0 310 28 57 c88 180 286 257 476
186z m-908 -46 l29 -32 0 -490 c0 -344 -3 -496 -11 -514 -18 -39 -71 -60 -115
-46 -70 23 -69 15 -72 492 l-3 428 -65 0 c-59 0 -68 3 -95 29 -39 39 -41 97
-3 134 33 33 46 36 187 34 l119 -2 29 -33z m1920 0 l29 -32 0 -495 0 -495 -29
-32 c-22 -24 -37 -32 -63 -32 -43 0 -86 26 -98 60 -6 15 -10 202 -10 445 l0
419 -64 0 c-55 0 -69 4 -95 26 -26 21 -31 33 -31 68 0 87 39 106 213 103 l119
-2 29 -33z"/>
<path d="M2659 4587 c-18 -12 -44 -38 -56 -56 -22 -33 -23 -40 -23 -296 0
-256 1 -263 23 -296 36 -53 82 -79 142 -79 66 0 112 29 143 90 21 42 22 55 22
285 0 230 -1 243 -22 285 -31 61 -77 90 -143 90 -38 0 -61 -6 -86 -23z"/>
<path d="M749 3217 c-27 -15 -53 -38 -67 -63 -22 -38 -22 -45 -20 -304 3 -260
3 -266 26 -298 29 -39 89 -72 134 -72 57 0 120 39 146 90 21 42 22 55 22 291
0 237 -1 247 -23 289 -26 50 -90 90 -142 90 -18 0 -52 -10 -76 -23z"/>
<path d="M2674 3221 c-23 -10 -52 -34 -65 -52 -24 -34 -24 -37 -27 -301 -3
-298 -2 -304 63 -354 73 -56 182 -36 235 43 25 36 25 40 28 267 4 283 1 306
-45 357 -53 59 -118 72 -189 40z"/>
<path d="M1683 1874 c-83 -41 -92 -76 -92 -364 -1 -208 2 -240 18 -276 57
-125 230 -133 292 -13 17 35 19 60 19 297 0 253 -1 260 -23 293 -50 74 -138
100 -214 63z"/>
<path d="M3680 4588 c-18 -13 -43 -36 -54 -51 -20 -27 -21 -40 -21 -302 0
-262 1 -275 21 -302 36 -48 82 -73 136 -73 60 0 98 19 135 67 l28 36 0 272 0
272 -28 36 c-15 20 -41 44 -57 52 -44 23 -121 19 -160 -7z"/>
<path d="M2680 509 c-14 -6 -36 -20 -48 -32 -49 -45 -52 -63 -52 -278 l0 -202
143 6 c78 4 152 10 165 13 l23 7 -3 191 c-3 180 -4 193 -27 229 -40 64 -130
94 -201 66z"/>
</g>
</svg>
